<mxfile host="Electron" agent="Mozilla/5.0 (Windows NT 10.0; Win64; x64) AppleWebKit/537.36 (KHTML, like Gecko) draw.io/27.0.5 Chrome/134.0.6998.205 Electron/35.3.0 Safari/537.36" version="27.0.5">
  <diagram name="Page-1" id="REg_WFNvGIkw-i9zwzp2">
    <mxGraphModel dx="1209" dy="794" grid="1" gridSize="10" guides="1" tooltips="1" connect="1" arrows="1" fold="1" page="1" pageScale="1" pageWidth="850" pageHeight="1100" math="0" shadow="0">
      <root>
        <mxCell id="0" />
        <mxCell id="1" parent="0" />
        <mxCell id="km6F-r5Ef5WqsHs4ZmL4-1" value="" style="rounded=1;whiteSpace=wrap;html=1;fillColor=#dae8fc;strokeColor=#6c8ebf;fillStyle=hatch;" vertex="1" parent="1">
          <mxGeometry x="140" y="160" width="390" height="420" as="geometry" />
        </mxCell>
        <mxCell id="km6F-r5Ef5WqsHs4ZmL4-2" value="" style="rounded=1;whiteSpace=wrap;html=1;fillColor=#fff2cc;strokeColor=#d6b656;fillStyle=hatch;" vertex="1" parent="1">
          <mxGeometry x="625" y="160" width="390" height="420" as="geometry" />
        </mxCell>
        <mxCell id="km6F-r5Ef5WqsHs4ZmL4-3" value="&lt;font style=&quot;font-size: 22px;&quot;&gt;&lt;b&gt;CRM&lt;/b&gt;&lt;/font&gt;" style="rounded=1;whiteSpace=wrap;html=1;fillColor=#dae8fc;strokeColor=#6c8ebf;" vertex="1" parent="1">
          <mxGeometry x="280" y="140" width="120" height="40" as="geometry" />
        </mxCell>
        <mxCell id="km6F-r5Ef5WqsHs4ZmL4-4" value="&lt;font style=&quot;font-size: 22px;&quot;&gt;&lt;b&gt;ERP&lt;/b&gt;&lt;/font&gt;" style="rounded=1;whiteSpace=wrap;html=1;fillColor=#fff2cc;strokeColor=#d6b656;" vertex="1" parent="1">
          <mxGeometry x="760" y="140" width="120" height="40" as="geometry" />
        </mxCell>
        <mxCell id="km6F-r5Ef5WqsHs4ZmL4-6" value="&lt;font style=&quot;font-size: 15px;&quot;&gt;&lt;b&gt;crm_sales_details&lt;/b&gt;&lt;/font&gt;" style="swimlane;fontStyle=0;childLayout=stackLayout;horizontal=1;startSize=30;horizontalStack=0;resizeParent=1;resizeParentMax=0;resizeLast=0;collapsible=1;marginBottom=0;whiteSpace=wrap;html=1;swimlaneFillColor=none;strokeWidth=1;perimeterSpacing=5;rounded=1;fillColor=#dae8fc;strokeColor=#6c8ebf;" vertex="1" parent="1">
          <mxGeometry x="160" y="330" width="140" height="90" as="geometry" />
        </mxCell>
        <mxCell id="km6F-r5Ef5WqsHs4ZmL4-7" value="&lt;font style=&quot;font-size: 15px;&quot;&gt;prd_key&lt;/font&gt;" style="text;strokeColor=none;fillColor=none;align=left;verticalAlign=middle;spacingLeft=4;spacingRight=4;overflow=hidden;points=[[0,0.5],[1,0.5]];portConstraint=eastwest;rotatable=0;whiteSpace=wrap;html=1;" vertex="1" parent="km6F-r5Ef5WqsHs4ZmL4-6">
          <mxGeometry y="30" width="140" height="30" as="geometry" />
        </mxCell>
        <mxCell id="km6F-r5Ef5WqsHs4ZmL4-8" value="&lt;font style=&quot;font-size: 15px;&quot;&gt;cst_id&lt;/font&gt;" style="text;strokeColor=none;fillColor=none;align=left;verticalAlign=middle;spacingLeft=4;spacingRight=4;overflow=hidden;points=[[0,0.5],[1,0.5]];portConstraint=eastwest;rotatable=0;whiteSpace=wrap;html=1;" vertex="1" parent="km6F-r5Ef5WqsHs4ZmL4-6">
          <mxGeometry y="60" width="140" height="30" as="geometry" />
        </mxCell>
        <mxCell id="km6F-r5Ef5WqsHs4ZmL4-17" value="&lt;font style=&quot;font-size: 15px;&quot;&gt;&lt;b&gt;crm_prd_info&lt;/b&gt;&lt;/font&gt;" style="swimlane;fontStyle=0;childLayout=stackLayout;horizontal=1;startSize=30;horizontalStack=0;resizeParent=1;resizeParentMax=0;resizeLast=0;collapsible=1;marginBottom=0;whiteSpace=wrap;html=1;swimlaneFillColor=none;strokeWidth=1;perimeterSpacing=5;rounded=1;fillColor=#dae8fc;strokeColor=#6c8ebf;" vertex="1" parent="1">
          <mxGeometry x="350" y="240" width="140" height="60" as="geometry" />
        </mxCell>
        <mxCell id="km6F-r5Ef5WqsHs4ZmL4-18" value="&lt;font style=&quot;font-size: 15px;&quot;&gt;prd_key&lt;/font&gt;" style="text;strokeColor=none;fillColor=none;align=left;verticalAlign=middle;spacingLeft=4;spacingRight=4;overflow=hidden;points=[[0,0.5],[1,0.5]];portConstraint=eastwest;rotatable=0;whiteSpace=wrap;html=1;" vertex="1" parent="km6F-r5Ef5WqsHs4ZmL4-17">
          <mxGeometry y="30" width="140" height="30" as="geometry" />
        </mxCell>
        <mxCell id="km6F-r5Ef5WqsHs4ZmL4-20" value="&lt;font style=&quot;font-size: 15px;&quot;&gt;&lt;b&gt;crm_cust_info&lt;/b&gt;&lt;/font&gt;" style="swimlane;fontStyle=0;childLayout=stackLayout;horizontal=1;startSize=30;horizontalStack=0;resizeParent=1;resizeParentMax=0;resizeLast=0;collapsible=1;marginBottom=0;whiteSpace=wrap;html=1;swimlaneFillColor=none;strokeWidth=1;perimeterSpacing=5;rounded=1;fillColor=#dae8fc;strokeColor=#6c8ebf;" vertex="1" parent="1">
          <mxGeometry x="350" y="440" width="140" height="90" as="geometry" />
        </mxCell>
        <mxCell id="km6F-r5Ef5WqsHs4ZmL4-22" value="&lt;font style=&quot;font-size: 15px;&quot;&gt;cst_key&lt;/font&gt;" style="text;strokeColor=none;fillColor=none;align=left;verticalAlign=middle;spacingLeft=4;spacingRight=4;overflow=hidden;points=[[0,0.5],[1,0.5]];portConstraint=eastwest;rotatable=0;whiteSpace=wrap;html=1;" vertex="1" parent="km6F-r5Ef5WqsHs4ZmL4-20">
          <mxGeometry y="30" width="140" height="30" as="geometry" />
        </mxCell>
        <mxCell id="km6F-r5Ef5WqsHs4ZmL4-21" value="&lt;font style=&quot;font-size: 15px;&quot;&gt;cst_id&lt;/font&gt;" style="text;strokeColor=none;fillColor=none;align=left;verticalAlign=middle;spacingLeft=4;spacingRight=4;overflow=hidden;points=[[0,0.5],[1,0.5]];portConstraint=eastwest;rotatable=0;whiteSpace=wrap;html=1;" vertex="1" parent="km6F-r5Ef5WqsHs4ZmL4-20">
          <mxGeometry y="60" width="140" height="30" as="geometry" />
        </mxCell>
        <mxCell id="km6F-r5Ef5WqsHs4ZmL4-23" style="edgeStyle=orthogonalEdgeStyle;rounded=0;orthogonalLoop=1;jettySize=auto;html=1;entryX=0;entryY=0.5;entryDx=0;entryDy=0;exitX=1;exitY=0.5;exitDx=0;exitDy=0;" edge="1" parent="1" source="km6F-r5Ef5WqsHs4ZmL4-8" target="km6F-r5Ef5WqsHs4ZmL4-21">
          <mxGeometry relative="1" as="geometry" />
        </mxCell>
        <mxCell id="km6F-r5Ef5WqsHs4ZmL4-24" style="edgeStyle=orthogonalEdgeStyle;rounded=0;orthogonalLoop=1;jettySize=auto;html=1;exitX=1;exitY=0.5;exitDx=0;exitDy=0;" edge="1" parent="1" source="km6F-r5Ef5WqsHs4ZmL4-7" target="km6F-r5Ef5WqsHs4ZmL4-18">
          <mxGeometry relative="1" as="geometry" />
        </mxCell>
        <mxCell id="km6F-r5Ef5WqsHs4ZmL4-29" value="&lt;b&gt;&lt;font style=&quot;font-size: 15px;&quot;&gt;erp_px_cat_g1v2&lt;/font&gt;&lt;/b&gt;" style="swimlane;fontStyle=0;childLayout=stackLayout;horizontal=1;startSize=30;horizontalStack=0;resizeParent=1;resizeParentMax=0;resizeLast=0;collapsible=1;marginBottom=0;whiteSpace=wrap;html=1;swimlaneFillColor=none;strokeWidth=1;perimeterSpacing=5;rounded=1;fillColor=#fff2cc;strokeColor=#d6b656;" vertex="1" parent="1">
          <mxGeometry x="700" y="210" width="240" height="60" as="geometry" />
        </mxCell>
        <mxCell id="km6F-r5Ef5WqsHs4ZmL4-30" value="&lt;font style=&quot;font-size: 15px;&quot;&gt;id&lt;/font&gt;" style="text;strokeColor=none;fillColor=none;align=left;verticalAlign=middle;spacingLeft=4;spacingRight=4;overflow=hidden;points=[[0,0.5],[1,0.5]];portConstraint=eastwest;rotatable=0;whiteSpace=wrap;html=1;" vertex="1" parent="km6F-r5Ef5WqsHs4ZmL4-29">
          <mxGeometry y="30" width="240" height="30" as="geometry" />
        </mxCell>
        <mxCell id="km6F-r5Ef5WqsHs4ZmL4-32" value="&lt;b&gt;&lt;font style=&quot;font-size: 15px;&quot;&gt;erp_cust_az12&lt;/font&gt;&lt;/b&gt;" style="swimlane;fontStyle=0;childLayout=stackLayout;horizontal=1;startSize=30;horizontalStack=0;resizeParent=1;resizeParentMax=0;resizeLast=0;collapsible=1;marginBottom=0;whiteSpace=wrap;html=1;swimlaneFillColor=none;strokeWidth=1;perimeterSpacing=5;rounded=1;fillColor=#fff2cc;strokeColor=#d6b656;" vertex="1" parent="1">
          <mxGeometry x="700" y="345" width="240" height="60" as="geometry" />
        </mxCell>
        <mxCell id="km6F-r5Ef5WqsHs4ZmL4-33" value="&lt;font style=&quot;font-size: 15px;&quot;&gt;cid&lt;/font&gt;" style="text;strokeColor=none;fillColor=none;align=left;verticalAlign=middle;spacingLeft=4;spacingRight=4;overflow=hidden;points=[[0,0.5],[1,0.5]];portConstraint=eastwest;rotatable=0;whiteSpace=wrap;html=1;" vertex="1" parent="km6F-r5Ef5WqsHs4ZmL4-32">
          <mxGeometry y="30" width="240" height="30" as="geometry" />
        </mxCell>
        <mxCell id="km6F-r5Ef5WqsHs4ZmL4-34" value="&lt;span style=&quot;font-size: 15px;&quot;&gt;&lt;b&gt;erp_loc_a101&lt;/b&gt;&lt;/span&gt;" style="swimlane;fontStyle=0;childLayout=stackLayout;horizontal=1;startSize=30;horizontalStack=0;resizeParent=1;resizeParentMax=0;resizeLast=0;collapsible=1;marginBottom=0;whiteSpace=wrap;html=1;swimlaneFillColor=none;strokeWidth=1;perimeterSpacing=5;rounded=1;fillColor=#fff2cc;strokeColor=#d6b656;" vertex="1" parent="1">
          <mxGeometry x="700" y="480" width="240" height="60" as="geometry" />
        </mxCell>
        <mxCell id="km6F-r5Ef5WqsHs4ZmL4-35" value="&lt;font style=&quot;font-size: 15px;&quot;&gt;cid&lt;/font&gt;" style="text;strokeColor=none;fillColor=none;align=left;verticalAlign=middle;spacingLeft=4;spacingRight=4;overflow=hidden;points=[[0,0.5],[1,0.5]];portConstraint=eastwest;rotatable=0;whiteSpace=wrap;html=1;" vertex="1" parent="km6F-r5Ef5WqsHs4ZmL4-34">
          <mxGeometry y="30" width="240" height="30" as="geometry" />
        </mxCell>
        <mxCell id="km6F-r5Ef5WqsHs4ZmL4-38" style="edgeStyle=orthogonalEdgeStyle;rounded=0;orthogonalLoop=1;jettySize=auto;html=1;entryX=1;entryY=0.5;entryDx=0;entryDy=0;" edge="1" parent="1" source="km6F-r5Ef5WqsHs4ZmL4-33" target="km6F-r5Ef5WqsHs4ZmL4-21">
          <mxGeometry relative="1" as="geometry" />
        </mxCell>
        <mxCell id="km6F-r5Ef5WqsHs4ZmL4-39" style="edgeStyle=orthogonalEdgeStyle;rounded=0;orthogonalLoop=1;jettySize=auto;html=1;entryX=1;entryY=0.5;entryDx=0;entryDy=0;" edge="1" parent="1" source="km6F-r5Ef5WqsHs4ZmL4-35" target="km6F-r5Ef5WqsHs4ZmL4-21">
          <mxGeometry relative="1" as="geometry" />
        </mxCell>
        <mxCell id="km6F-r5Ef5WqsHs4ZmL4-40" style="edgeStyle=orthogonalEdgeStyle;rounded=0;orthogonalLoop=1;jettySize=auto;html=1;entryX=1;entryY=0.5;entryDx=0;entryDy=0;" edge="1" parent="1" source="km6F-r5Ef5WqsHs4ZmL4-30" target="km6F-r5Ef5WqsHs4ZmL4-18">
          <mxGeometry relative="1" as="geometry" />
        </mxCell>
        <mxCell id="km6F-r5Ef5WqsHs4ZmL4-41" value="&lt;font style=&quot;font-size: 30px;&quot;&gt;Relation Ship Between Tables&lt;/font&gt;" style="text;html=1;align=center;verticalAlign=middle;whiteSpace=wrap;rounded=0;" vertex="1" parent="1">
          <mxGeometry x="80" y="70" width="460" height="30" as="geometry" />
        </mxCell>
        <mxCell id="km6F-r5Ef5WqsHs4ZmL4-43" value="&lt;h1 style=&quot;margin-top: 0px;&quot;&gt;--Satya&lt;/h1&gt;&lt;p&gt;&lt;br&gt;&lt;/p&gt;" style="text;html=1;whiteSpace=wrap;overflow=hidden;rounded=0;" vertex="1" parent="1">
          <mxGeometry x="925" y="600" width="90" height="50" as="geometry" />
        </mxCell>
      </root>
    </mxGraphModel>
  </diagram>
</mxfile>
